<svg width="24" height="24" viewBox="0 0 24 24" fill="none" xmlns="http://www.w3.org/2000/svg">
<path d="M12 22C14.9801 22 13.168 17.568 15 15.5C16.5632 13.7355 22 14.5428 22 12C22 6.47715 17.5229 2 12 2C6.47715 2 2 6.47715 2 12C2 17.5229 6.47715 22 12 22Z" stroke="#A6B5FF" stroke-width="2" stroke-linejoin="round"/>
<path d="M15 9C16.1046 9 17 8.1046 17 7C17 5.8954 16.1046 5 15 5C13.8954 5 13 5.8954 13 7C13 8.1046 13.8954 9 15 9Z" fill="#A6B5FF"/>
<path d="M8 11C9.1046 11 10 10.1046 10 9C10 7.8954 9.1046 7 8 7C6.8954 7 6 7.8954 6 9C6 10.1046 6.8954 11 8 11Z" fill="#A6B5FF"/>
<path d="M8.5 18C9.6046 18 10.5 17.1046 10.5 16C10.5 14.8954 9.6046 14 8.5 14C7.3954 14 6.5 14.8954 6.5 16C6.5 17.1046 7.3954 18 8.5 18Z" fill="#A6B5FF"/>
</svg>
