<svg width="24" height="24" viewBox="0 0 24 24" fill="none" xmlns="http://www.w3.org/2000/svg">
<path d="M19 4H5C4.44771 4 4 4.44771 4 5V19C4 19.5523 4.44771 20 5 20H19C19.5523 20 20 19.5523 20 19V5C20 4.44771 19.5523 4 19 4Z" stroke="#A6B5FF" stroke-width="2" stroke-linejoin="round"/>
<path d="M15 9H9V15H15V9Z" stroke="#A6B5FF" stroke-width="2" stroke-linejoin="round"/>
<path d="M7.45459 1V4" stroke="#A6B5FF" stroke-width="2" stroke-linecap="round" stroke-linejoin="round"/>
<path d="M7.45459 20V23" stroke="#A6B5FF" stroke-width="2" stroke-linecap="round" stroke-linejoin="round"/>
<path d="M12 1V4" stroke="#A6B5FF" stroke-width="2" stroke-linecap="round" stroke-linejoin="round"/>
<path d="M12 20V23" stroke="#A6B5FF" stroke-width="2" stroke-linecap="round" stroke-linejoin="round"/>
<path d="M16.5454 1V4" stroke="#A6B5FF" stroke-width="2" stroke-linecap="round" stroke-linejoin="round"/>
<path d="M16.5454 20V23" stroke="#A6B5FF" stroke-width="2" stroke-linecap="round" stroke-linejoin="round"/>
<path d="M1 7.45459H4" stroke="#A6B5FF" stroke-width="2" stroke-linecap="round" stroke-linejoin="round"/>
<path d="M20 7.45459H23" stroke="#A6B5FF" stroke-width="2" stroke-linecap="round" stroke-linejoin="round"/>
<path d="M1 12H4" stroke="#A6B5FF" stroke-width="2" stroke-linecap="round" stroke-linejoin="round"/>
<path d="M20 12H23" stroke="#A6B5FF" stroke-width="2" stroke-linecap="round" stroke-linejoin="round"/>
<path d="M1 16.5454H4" stroke="#A6B5FF" stroke-width="2" stroke-linecap="round" stroke-linejoin="round"/>
<path d="M20 16.5454H23" stroke="#A6B5FF" stroke-width="2" stroke-linecap="round" stroke-linejoin="round"/>
</svg>
