<svg width="60" height="60" viewBox="0 0 60 60" fill="none" xmlns="http://www.w3.org/2000/svg">
<rect width="60" height="60" rx="12" fill="url(#paint0_linear_496_2028)"/>
<path d="M39.9512 26.4615C40.2508 27.0513 41.1495 27.3462 41.7486 27.3462C42.9469 27.3462 44.1452 26.1667 44.1452 24.9872C44.1452 23.8077 42.9469 22.6282 41.7486 22.6282C40.8499 22.6282 40.2508 22.9231 39.9512 23.5128H32.1625V17.6154C34.559 17.0256 36.0569 14.9615 36.0569 12.3077C36.0569 9.65385 33.9599 7.29487 31.2638 7V11.1282C31.8629 11.4231 32.1625 12.0128 32.1625 12.6026C32.1625 13.4872 31.2638 14.3718 30.3651 14.3718C29.4664 14.3718 28.5677 13.4872 28.5677 12.6026C28.5677 12.0128 28.8673 11.4231 29.4664 11.1282V7C26.7703 7.29487 24.6733 9.65385 24.6733 12.3077C24.6733 14.6667 26.1712 16.7308 28.5677 17.6154V23.8077H20.779C20.1798 23.2179 19.5807 22.9231 18.682 22.9231C17.4837 22.9231 16.2855 24.1026 16.2855 25.2821C16.2855 26.4615 17.4837 27.641 18.682 27.641C19.5807 27.641 20.1798 27.3462 20.4794 26.7564H28.2681V41.7949C28.2681 41.7949 28.5677 45.3333 24.9729 45.6282C21.3781 45.9231 18.0829 43.859 15.9859 40.9103C16.585 40.6154 17.1842 40.3205 18.3824 40.0256C18.3824 40.0256 12.9902 34.7179 11.4924 30.8846C11.4924 30.8846 7.59803 37.0769 12.3911 44.1538C12.3911 44.1538 12.9902 43.2692 14.1885 42.3846C15.3868 43.859 17.7833 46.5128 21.3781 47.6923C26.1712 49.4615 27.9686 49.7564 30.0655 53C32.1625 49.7564 33.9599 49.4615 38.753 47.6923C42.3478 46.5128 44.7443 43.5641 45.9426 42.0897L47.74 43.859C52.2335 37.0769 48.6387 30.5897 48.6387 30.5897C46.8413 34.7179 41.7486 39.7308 41.7486 39.7308C42.9469 40.0256 43.8456 40.3205 44.1452 40.6154C42.0482 43.2692 38.753 45.3333 35.1582 45.3333C31.5634 45.0385 31.8629 41.5 31.8629 41.5V26.1667H39.9512V26.4615Z" fill="white"/>
<defs>
<linearGradient id="paint0_linear_496_2028" x1="2.25" y1="4.875" x2="55.5" y2="56.25" gradientUnits="userSpaceOnUse">
<stop stop-color="#6964FF"/>
<stop offset="1" stop-color="#8143FF"/>
</linearGradient>
</defs>
</svg>
